<?xml version="1.0" encoding="utf-8"?>
<!-- Generator: Adobe Illustrator 25.2.1, SVG Export Plug-In . SVG Version: 6.00 Build 0)  -->
<svg version="1.1" id="Layer_1" xmlns="http://www.w3.org/2000/svg" xmlns:xlink="http://www.w3.org/1999/xlink" x="0px" y="0px"
	 viewBox="0 0 403 34" style="enable-background:new 0 0 403 34;" xml:space="preserve">
<style type="text/css">
	.st0{fill:#DFAC34;}
	.st1{fill:none;stroke:#231F20;stroke-width:0.6989;stroke-miterlimit:10;}
	.st2{fill:#231F20;}
</style>
<g>
	<g>
		<path class="st0" d="M188.1,11.7c0,2.1-0.7,3.8-2.1,4.9s-3.4,1.7-6,1.7h-2.1v7.6h-3.3V5.5h5.9c2.6,0,4.5,0.5,5.7,1.6
			C187.4,8.1,188.1,9.7,188.1,11.7z M177.9,15.5h1.8c1.7,0,3-0.3,3.8-0.9c0.8-0.6,1.2-1.5,1.2-2.8c0-1.2-0.4-2-1.1-2.6
			s-1.8-0.9-3.4-0.9h-2.3V15.5z"/>
		<path class="st0" d="M201.5,25.9l-0.7-2.2h-0.1c-0.7,0.9-1.5,1.6-2.2,1.9s-1.7,0.5-2.9,0.5c-1.5,0-2.7-0.4-3.6-1.2
			c-0.9-0.8-1.3-2-1.3-3.5c0-1.6,0.6-2.8,1.8-3.6s3-1.3,5.4-1.3l2.7-0.1v-0.8c0-1-0.2-1.7-0.7-2.2s-1.2-0.7-2.1-0.7
			c-0.8,0-1.6,0.1-2.3,0.3s-1.4,0.5-2.1,0.8l-1.1-2.3c0.8-0.4,1.8-0.8,2.8-1c1-0.2,1.9-0.3,2.8-0.3c2,0,3.4,0.4,4.4,1.3
			c1,0.9,1.5,2.2,1.5,4v10.4H201.5z M196.6,23.7c1.2,0,2.1-0.3,2.9-1c0.7-0.7,1.1-1.6,1.1-2.8v-1.3l-2,0.1c-1.5,0.1-2.7,0.3-3.4,0.8
			c-0.7,0.5-1.1,1.2-1.1,2.1c0,0.7,0.2,1.2,0.6,1.6C195.1,23.5,195.8,23.7,196.6,23.7z"/>
		<path class="st0" d="M216.2,10.2c0.7,0,1.2,0,1.6,0.1l-0.3,3.1c-0.5-0.1-0.9-0.2-1.5-0.2c-1.3,0-2.4,0.4-3.2,1.3
			c-0.8,0.9-1.2,2-1.2,3.3v8.1h-3.3V10.5h2.6l0.4,2.7h0.2c0.5-0.9,1.2-1.7,2-2.2C214.4,10.5,215.3,10.2,216.2,10.2z"/>
		<path class="st0" d="M226.5,23.6c0.8,0,1.6-0.1,2.4-0.4v2.5c-0.4,0.2-0.8,0.3-1.4,0.4c-0.6,0.1-1.2,0.2-1.8,0.2
			c-3.1,0-4.7-1.6-4.7-4.9V13h-2.1v-1.5l2.3-1.2l1.1-3.3h2v3.4h4.4V13h-4.4v8.3c0,0.8,0.2,1.4,0.6,1.8
			C225.3,23.4,225.8,23.6,226.5,23.6z"/>
		<path class="st0" d="M245.5,25.9h-3.3v-9.5c0-1.2-0.2-2.1-0.7-2.7c-0.5-0.6-1.2-0.9-2.3-0.9c-1.4,0-2.4,0.4-3,1.2s-1,2.2-1,4.1
			v7.7H232V10.5h2.6l0.5,2h0.2c0.5-0.7,1.1-1.3,2-1.7s1.8-0.6,2.8-0.6c3.7,0,5.6,1.9,5.6,5.7V25.9z"/>
		<path class="st0" d="M256.9,26.2c-2.4,0-4.3-0.7-5.6-2.1c-1.4-1.4-2-3.3-2-5.8c0-2.5,0.6-4.5,1.9-5.9s3-2.2,5.2-2.2
			c2,0,3.6,0.6,4.8,1.9c1.2,1.2,1.8,2.9,1.8,5.1v1.8h-10.3c0,1.5,0.5,2.7,1.2,3.5c0.8,0.8,1.8,1.2,3.2,1.2c0.9,0,1.8-0.1,2.5-0.3
			c0.8-0.2,1.6-0.5,2.5-0.9v2.7c-0.8,0.4-1.6,0.7-2.4,0.8C258.8,26.1,257.9,26.2,256.9,26.2z M256.3,12.7c-1,0-1.9,0.3-2.5,1
			c-0.6,0.7-1,1.6-1.1,2.9h7c0-1.3-0.3-2.2-0.9-2.9S257.3,12.7,256.3,12.7z"/>
		<path class="st0" d="M274.4,10.2c0.7,0,1.2,0,1.6,0.1l-0.3,3.1c-0.5-0.1-0.9-0.2-1.5-0.2c-1.3,0-2.4,0.4-3.2,1.3
			c-0.8,0.9-1.2,2-1.2,3.3v8.1h-3.3V10.5h2.6l0.4,2.7h0.2c0.5-0.9,1.2-1.7,2-2.2C272.6,10.5,273.5,10.2,274.4,10.2z"/>
		<path class="st0" d="M300.2,11.7c0,2.1-0.7,3.8-2.1,4.9s-3.4,1.7-6,1.7H290v7.6h-3.3V5.5h5.9c2.6,0,4.5,0.5,5.7,1.6
			C299.6,8.1,300.2,9.7,300.2,11.7z M290,15.5h1.8c1.7,0,3-0.3,3.8-0.9c0.8-0.6,1.2-1.5,1.2-2.8c0-1.2-0.4-2-1.1-2.6
			s-1.8-0.9-3.4-0.9H290V15.5z"/>
		<path class="st0" d="M311.8,10.2c0.7,0,1.2,0,1.6,0.1l-0.3,3.1c-0.5-0.1-0.9-0.2-1.5-0.2c-1.3,0-2.4,0.4-3.2,1.3
			c-0.8,0.9-1.2,2-1.2,3.3v8.1h-3.3V10.5h2.6l0.4,2.7h0.2c0.5-0.9,1.2-1.7,2-2.2C309.9,10.5,310.8,10.2,311.8,10.2z"/>
		<path class="st0" d="M330,18.2c0,2.5-0.6,4.5-1.9,5.9c-1.3,1.4-3.1,2.1-5.4,2.1c-1.4,0-2.7-0.3-3.8-1s-2-1.6-2.6-2.8
			c-0.6-1.2-0.9-2.6-0.9-4.2c0-2.5,0.6-4.5,1.9-5.9c1.3-1.4,3.1-2.1,5.4-2.1c2.2,0,4,0.7,5.3,2.2C329.3,13.8,330,15.7,330,18.2z
			 M318.7,18.2c0,3.6,1.3,5.3,4,5.3c2.6,0,3.9-1.8,3.9-5.3c0-3.5-1.3-5.3-3.9-5.3c-1.4,0-2.4,0.5-3,1.4S318.7,16.5,318.7,18.2z"/>
		<path class="st0" d="M346.8,10.5v1.8l-2.6,0.5c0.2,0.3,0.4,0.7,0.6,1.2c0.2,0.5,0.2,1,0.2,1.5c0,1.6-0.5,2.8-1.6,3.8
			c-1.1,0.9-2.6,1.4-4.5,1.4c-0.5,0-0.9,0-1.3-0.1c-0.7,0.4-1.1,1-1.1,1.5c0,0.4,0.2,0.6,0.5,0.8c0.3,0.2,0.9,0.3,1.8,0.3h2.7
			c1.7,0,3,0.4,3.9,1.1c0.9,0.7,1.3,1.8,1.3,3.1c0,1.8-0.7,3.1-2.2,4c-1.4,0.9-3.5,1.4-6.3,1.4c-2.1,0-3.7-0.4-4.8-1.1
			c-1.1-0.7-1.7-1.8-1.7-3.2c0-0.9,0.3-1.7,0.9-2.4c0.6-0.6,1.4-1.1,2.5-1.3c-0.4-0.2-0.8-0.5-1.1-0.9c-0.3-0.4-0.4-0.8-0.4-1.3
			c0-0.6,0.2-1.1,0.5-1.5c0.3-0.4,0.8-0.8,1.5-1.2c-0.8-0.3-1.5-0.9-1.9-1.7c-0.5-0.8-0.7-1.7-0.7-2.7c0-1.7,0.5-3,1.6-3.9
			c1.1-0.9,2.6-1.4,4.5-1.4c0.4,0,0.9,0,1.4,0.1c0.5,0.1,0.8,0.1,1.1,0.2H346.8z M334.7,28.3c0,0.7,0.3,1.3,1,1.6
			c0.6,0.4,1.5,0.6,2.7,0.6c1.8,0,3.1-0.3,4-0.8c0.9-0.5,1.3-1.2,1.3-2c0-0.7-0.2-1.1-0.7-1.4c-0.5-0.3-1.4-0.4-2.7-0.4h-2.5
			c-0.9,0-1.7,0.2-2.2,0.7C334.9,27,334.7,27.6,334.7,28.3z M336.1,15.5c0,1,0.2,1.7,0.7,2.2c0.5,0.5,1.2,0.8,2.1,0.8
			c1.9,0,2.8-1,2.8-3c0-1-0.2-1.8-0.7-2.3c-0.5-0.5-1.2-0.8-2.1-0.8c-0.9,0-1.7,0.3-2.2,0.8C336.3,13.7,336.1,14.4,336.1,15.5z"/>
		<path class="st0" d="M357.5,10.2c0.7,0,1.2,0,1.6,0.1l-0.3,3.1c-0.5-0.1-1-0.2-1.5-0.2c-1.3,0-2.4,0.4-3.2,1.3
			c-0.8,0.9-1.2,2-1.2,3.3v8.1h-3.3V10.5h2.6l0.4,2.7h0.2c0.5-0.9,1.2-1.7,2-2.2C355.6,10.5,356.5,10.2,357.5,10.2z"/>
		<path class="st0" d="M371.6,25.9l-0.7-2.2h-0.1c-0.7,0.9-1.5,1.6-2.2,1.9s-1.7,0.5-2.9,0.5c-1.5,0-2.7-0.4-3.6-1.2
			c-0.9-0.8-1.3-2-1.3-3.5c0-1.6,0.6-2.8,1.8-3.6s3-1.3,5.4-1.3l2.7-0.1v-0.8c0-1-0.2-1.7-0.7-2.2c-0.5-0.5-1.2-0.7-2.1-0.7
			c-0.8,0-1.5,0.1-2.3,0.3c-0.7,0.2-1.4,0.5-2.1,0.8l-1.1-2.3c0.8-0.4,1.8-0.8,2.8-1s1.9-0.3,2.8-0.3c2,0,3.4,0.4,4.4,1.3
			s1.5,2.2,1.5,4v10.4H371.6z M366.8,23.7c1.2,0,2.1-0.3,2.9-1c0.7-0.7,1.1-1.6,1.1-2.8v-1.3l-2,0.1c-1.5,0.1-2.7,0.3-3.4,0.8
			c-0.7,0.5-1.1,1.2-1.1,2.1c0,0.7,0.2,1.2,0.6,1.6C365.3,23.5,365.9,23.7,366.8,23.7z"/>
		<path class="st0" d="M391.6,25.9h-3.3v-9.5c0-1.2-0.2-2.1-0.7-2.6c-0.4-0.6-1.1-0.9-2.1-0.9c-1.3,0-2.2,0.4-2.8,1.2
			c-0.6,0.8-0.9,2.2-0.9,4.1v7.7h-3.3V10.5h2.6l0.5,2h0.2c0.4-0.7,1-1.3,1.9-1.7s1.7-0.6,2.7-0.6c2.4,0,3.9,0.8,4.7,2.4h0.2
			c0.5-0.8,1.1-1.4,1.9-1.8c0.8-0.4,1.8-0.6,2.8-0.6c1.8,0,3.2,0.5,4,1.4c0.8,0.9,1.3,2.4,1.3,4.3v10.1h-3.3v-9.5
			c0-1.2-0.2-2.1-0.7-2.6c-0.5-0.6-1.2-0.9-2.1-0.9c-1.3,0-2.2,0.4-2.8,1.2c-0.6,0.8-0.9,2-0.9,3.7V25.9z"/>
	</g>
	<line class="st1" x1="160.7" y1="3.8" x2="160.7" y2="26.5"/>
	<g>
		<path class="st2" d="M24.2,4.5c-1.8,0.2-2.3,0.9-3,2.7l-7.6,19.5h-0.9L4.2,6.8c-0.9-2-1.4-2.1-2.8-2.3V3.7h11.2v0.8
			c-2.1,0.1-2.9,0.1-2.9,1.4c0,0.6,0.7,2,1,2.9l4.4,10.5l4.2-10.9C19.6,7.5,20,6.7,20,6c0-1.3-1-1.4-2.9-1.5V3.7h7.1V4.5z"/>
		<path class="st2" d="M31.2,26.1h-7.9v-0.8c1.2-0.3,1.8-0.4,1.8-2v-9.8c0-1.5-0.5-1.7-1.8-2v-0.8h6.4v12.6c0,1,0.3,1.8,1.6,1.9
			V26.1z M27.3,3.2c1.4,0,2.5,1.2,2.5,2.6c0,1.5-1.1,2.5-2.5,2.5c-1.5,0-2.6-1.1-2.6-2.5C24.7,4.4,25.8,3.2,27.3,3.2z"/>
		<path class="st2" d="M36.5,16.7c0-4.6,1.1-5.3,2.4-5.3c1.2,0,1.6,0.8,1.8,1.6c0.3,1,0.3,2.7,0.3,3.8H36.5z M44.4,21.9
			c-0.6,0.8-1.8,2.2-3.8,2.2c-3.2,0-3.9-3.4-4-6.2h8.4c-0.1-1.8-0.5-7.6-6.3-7.6c-3.8,0-6.8,3.1-6.8,8c0,5.7,3.4,8.2,6.7,8.2
			c2.7,0,4.5-1.1,6.6-4.2L44.4,21.9z"/>
		<path class="st2" d="M68.4,11.6c-0.6,0.1-1.1,0.2-1.7,1.7l-5.2,13.4h-0.8l-3.3-10.1h-0.2l-4.1,10.1h-0.8l-4.9-12.5
			c-0.9-2.2-1-2.4-1.9-2.6v-0.8h7.4v0.8c-0.5,0.1-1.3,0.1-1.3,1c0,0.7,1.1,3.2,2.8,7.7l2.3-5.7c-0.3-1.1-0.5-1.8-0.7-2.2
			c-0.3-0.7-0.7-0.7-1.5-0.8v-0.8h7.8v0.8c-0.9,0.1-1.6,0.1-1.6,0.8c0,0.7,1.4,5,2,7.6H63c0.9-2.5,2.6-6.5,2.6-7.2
			c0-1.1-0.7-1.1-1.6-1.2v-0.8h4.5V11.6z"/>
		<path class="st2" d="M83.2,10.4c-0.6-2.3-2.6-6.1-6.5-6.1c-1.7,0-3.6,1-3.6,3.1c0,1.8,0.6,2.5,3.4,3.9l4.9,2.4
			c1.1,0.6,3.7,2.5,3.7,6.1c0,2.9-2.1,6.9-8.3,6.9c-3.2,0-4.7-1.1-5.7-1.1c-0.7,0-0.9,0.6-1,1.1h-0.9v-8.2h0.9
			c0.7,3.3,2.6,7.1,6.8,7.1c4,0,4.2-3.3,4.2-3.7c0-2.2-1.6-3-3.7-4l-2.2-1.1c-5.7-2.7-5.7-5.6-5.7-7.1c0-2,1-6.5,7.3-6.5
			c2.7,0,4.2,1.1,5.2,1.1c0.8,0,0.9-0.5,1.1-1.1h1v7.2H83.2z"/>
		<path class="st2" d="M91.3,18.5c0-3.8,0.2-7.1,2.6-7.1c2,0,2.6,2,2.6,7.1c0,4.2-0.3,7.1-2.6,7.1C91.3,25.5,91.3,22.1,91.3,18.5z
			 M86.5,18.5c0,4.3,2.9,8.1,7.5,8.1c4.5,0,7.5-3.7,7.5-8.1c0-4.6-3.1-8.1-7.5-8.1C89.3,10.4,86.5,14.2,86.5,18.5z"/>
		<path class="st2" d="M119.2,26.1h-7.8v-0.8c1.1-0.1,1.6-0.7,1.6-1.9v-8.1c0-0.9,0-2.8-1.8-2.8c-1.3,0-2.8,1.6-2.8,1.9v8.9
			c0,0.8,0.1,1.7,1.6,1.9v0.8h-8v-0.8c1.2-0.2,1.8-0.4,1.8-2v-9.8c0-1.5-0.4-1.8-1.8-2v-0.8h6.3v2.4h0.1c0.5-0.8,1.9-2.8,4.7-2.8
			c1.8,0,4.4,1,4.4,4.7v8.4c0,0.8,0,1.8,1.6,1.9V26.1z"/>
		<path class="st2" d="M128,26.1h-7.9v-0.8c1.2-0.3,1.8-0.4,1.8-2v-9.8c0-1.5-0.5-1.7-1.8-2v-0.8h6.4v12.6c0,1,0.3,1.8,1.6,1.9V26.1
			z M124.1,3.2c1.4,0,2.5,1.2,2.5,2.6c0,1.5-1.1,2.5-2.5,2.5c-1.5,0-2.6-1.1-2.6-2.5C121.6,4.4,122.6,3.2,124.1,3.2z"/>
		<path class="st2" d="M142.2,23.1c-1.5,2.2-3.7,3.5-6.3,3.5c-4.2,0-7.1-3.5-7.1-7.6c0-6.6,4.7-8.6,7.8-8.6c2.4,0,5.1,1.2,5.1,3.6
			c0,2.1-2,2.1-2.3,2.1c-1.9,0-1.9-1.6-1.9-3.4c0-1-0.9-1.3-1.3-1.3c-2.6,0-2.8,4.1-2.8,5.6c0,4.7,2,7.3,4.6,7.3
			c1.9,0,2.8-1,3.6-1.9L142.2,23.1z"/>
		<path class="st2" d="M142.2,9.9c0-1.2,0.9-2,2-2c1.1,0,2,0.9,2,2c0,1.2-0.9,2-2,2C143,11.9,142.2,11,142.2,9.9z M144.1,12.3
			c1.3,0,2.5-1,2.5-2.4c0-1.4-1.1-2.4-2.5-2.4c-1.3,0-2.5,1-2.5,2.4C141.7,11.3,142.8,12.3,144.1,12.3z M143.6,10h0.5l0.7,1.2h0.5
			l-0.8-1.2c0.4-0.1,0.7-0.3,0.7-0.8c0-0.6-0.3-0.8-1-0.8h-1.1v2.8h0.4V10z M143.6,9.7V8.8h0.6c0.3,0,0.6,0.1,0.6,0.4
			c0,0.4-0.3,0.5-0.7,0.5H143.6z"/>
	</g>
</g>
</svg>